<svg version="1" xmlns="http://www.w3.org/2000/svg" width="1066.667" height="1066.667" viewBox="0 0 800.000000 800.000000"><path d="M306.8 30.5c-.2.1-3.2.6-6.8.9-3.6.4-9.4 1.4-13 2.3-3.6.8-7.4 1.6-8.5 1.8-1.1.2-3.3.8-5 1.5-1.6.6-3.2 1.2-3.5 1.2-4.1.3-33 14.8-33.8 16.9-.2.5-.8.9-1.3.9-1.2 0-12.3 8-12.7 9.2-.2.4-.8.8-1.3.8-1.3 0-4.4 2.8-18.2 16.6-11.8 11.6-12.2 12.1-20.3 22.5-4.5 5.7-15.6 21.7-19.1 27.4-.7 1.1-3 5-5.3 8.8-6.3 10.3-18.8 35.8-23 46.7-.7 1.9-1.7 3.9-2.2 4.4-.4.6-.8 1.6-.8 2.2 0 .7-.5 2.5-1.2 4.1-.6 1.5-1.2 3.1-1.3 3.5-.2.5-.4 1-.5 1.3-.1.3-.3 1-.4 1.6 0 .6-3.2 2-7 3-3.8.9-8.1 2.3-9.5 3-28 12.9-35.4 20.3-53.8 53.4-8.5 15.2-28.7 57.1-29.7 61.5-.1.3-1.3 3-2.7 6.1-1.5 3-3.2 7.3-3.9 9.5-.7 2.1-1.6 4.3-2 4.9-1.2 1.6-5.1 14.1-5.6 17.7-.2 1.8-.6 4.4-.9 5.8-.6 2.6-1 5.1-2.1 13.5-.4 2.7-.8 5.9-.9 7-.3 1.9-.9 7.3-2.1 18-3.4 31.4-3.8 78.9-.9 106 .3 2.2.7 6 .9 8.5 1.7 16.3 3.2 28.8 4 32.5.2 1.1.7 4.7 1 8 .9 7.9 3.7 13.7 13.6 28.4l8.2 12.3-2.1 2.2c-1.2 1.2-2.1 2.8-2.1 3.4 0 .7-1.5 1.2-3.2 1.3-1.8 0-4 .2-4.8.4-1.7.4-7.9 1.6-9.7 1.9-.7.1-1.5.5-1.9.8-.5.5-.9 146.9-.5 161.3.1 2 .1 2 312.6 2 171.9 0 312.5-.3 312.5-.7 0-2.9-17.6-38-21-41.8-.8-.9-3.7-4.3-6.5-7.5-5-5.8-8.9-9.6-13.5-13.4-1.4-1.1-3-2.4-3.5-2.9-.6-.5-2.9-2.2-5.1-3.8-2.2-1.6-4.6-3.5-5.4-4.2-2.1-1.8-24-17.1-27.2-19-1.6-.9-2.8-2-2.8-2.4 0-.4-.6-.8-1.2-.9-.7 0-3.3-1.5-5.8-3.3-4.2-3.1-4.5-3.6-4.6-8.2-.1-6.1.3-7.4 2.7-7.4 1 0 1.9-.5 1.9-1.2 0-.6.3-.9.6-.6.3.4 2 .2 3.7-.4 1.8-.5 4.6-1.2 6.2-1.4 3.9-.6 9.2-2.2 13-3.9 1.7-.7 6.2-2.5 10-4 8-3.1 39-18.2 40.8-19.9.7-.6 2.8-2 4.7-3 6.8-3.8 7.3-4.1 8.9-5.4.9-.7 5.2-4 9.7-7.2 4.4-3.2 10.9-8.7 14.5-12.2 6-5.9 6.7-6.3 11.4-6.4 2.8-.1 7-.5 9.5-.8 2.5-.4 6-1 7.8-1.2 1.9-.3 5.1-1.2 7.3-1.9 2.1-.8 3.9-1.2 3.9-1 0 1 13.1-6.2 17.2-9.5 5.9-4.7 8.9-8.2 12.2-14.7 4.2-8 3.3-15.4-2.6-22-2.9-3.1-1.9-5.3 3.9-8.7 15.5-9.1 26.3-18.8 30.4-27.2 5.1-10.5 1.7-23.9-7.6-30.2l-4.9-3.3-.2-6.7c-.2-6.8-2.7-20-4.3-23-.5-.9-1-2-1.1-2.4-.1-.4-.4-1.7-.7-2.9-1-3.8-8.9-18.4-13.8-25.5-7.1-10.4-11.7-15.8-24.8-28.7-6.5-6.6-11.7-12-11.5-12.2.2-.1 3.2-1.7 6.8-3.5 8.3-4.1 23-13.1 23-14 0-.4 1-1.1 2.3-1.7 6.1-2.8 20.9-19.2 25.6-28.3.7-1.4 2.7-3.2 4.4-4.1 21.8-10.6 24.4-12.8 25-21.7.4-5.1.7-5.6 7.5-12 7.4-6.9 9.4-10.3 8.7-14.5-.3-1.3-.7-3.9-.9-5.8-.3-1.9-.5-3.4-.6-3.4-.1 0-.4-1.3-.6-2.8-.3-1.6-1.6-4.6-3-6.7-2.4-3.7-2.5-4-1-6.2.9-1.2 1.6-4.2 1.6-6.8 0-4-.5-5.1-3.7-8.3-2.1-2-6.1-4.9-8.9-6.4l-5.1-2.8-.1-6c0-3.3-.1-6.8-.1-7.7-.1-.9-2.5-4.1-5.4-7-4.9-4.9-9.6-7.9-17.4-10.8-3-1.1-3.3-1.6-3.3-5.5s-.5-4.8-4.9-9c-16.5-15.8-43-29.9-63.8-33.9-2.1-.4-2.8-1.6-2.9-5.4-.4-7.8-2.4-17.5-5.5-26.7-2.4-7-9.7-21.9-11-22.3-.5-.2-.9-.8-.9-1.3 0-2.5-13.8-18.5-21.1-24.4-4-3.2-11.7-8.5-12.4-8.5-.3 0-1.8-.9-3.3-2-2.8-2.1-18.6-8.7-22.5-9.4-1.2-.3-2.2-.5-2.2-.6 0-.5-10.8-2.5-19-3.6-6.8-.9-21.8-.9-28.5-.1-5.9.7-7.2 1-14 2.7-2.5.6-5.4 1.2-6.6 1.4-1.1.2-2.5.6-3.1.9-.5.3-2 .8-3.4 1.1-4.3.8-25.7 8.9-36.1 13.6-2.6 1.1-5.1 2.2-5.5 2.3-.5.1-7.2 3.4-15.1 7.3l-14.4 7.2-4.1-3.2c-5.3-4-23.7-16-24.7-16.1-.3 0-2.5-1.2-5-2.7-3.8-2.2-17.6-8.9-24.5-11.9-8.3-3.5-24.6-8.5-34-10.3-4.4-.8-9.1-1.8-10.5-2.2-2.5-.6-36.6-1.5-37.2-.9zm145.7 274.3c-.3.3-1.1 0-1.8-.7-.9-1-.8-1.1.6-.5 1 .3 1.5.9 1.2 1.2z"/></svg>